<svg width="657" height="43" viewBox="0 0 657 43" fill="none" xmlns="http://www.w3.org/2000/svg">
<path d="M13.0078 15.4062H15.1406C17.3555 15.4062 18.7266 16.4961 18.7266 18.2422C18.7266 19.9062 17.2734 21.0898 15.2109 21.0898C13.1602 21.0898 11.7539 20.0469 11.5898 18.4062H9.07031C9.22266 21.4297 11.6602 23.4102 15.2109 23.4102C18.7383 23.4102 21.4102 21.2539 21.4102 18.3828C21.4102 16.1211 20.0039 14.5391 17.6953 14.2695V14.0703C19.5586 13.6484 20.7188 12.1484 20.7188 10.1562C20.7188 7.61328 18.3047 5.67969 15.1641 5.67969C11.7773 5.67969 9.57422 7.56641 9.39844 10.625H11.8945C12.0352 8.96094 13.2422 7.94141 15.082 7.94141C16.9219 7.94141 18.1289 8.97266 18.1289 10.543C18.1289 12.1367 16.875 13.2383 15.0586 13.2383H13.0078V15.4062ZM30.4219 23.4102C34.6523 23.4102 37.125 20.0469 37.125 14.3164C37.125 12.2656 36.7734 10.5312 36.082 9.17188C34.9922 6.89844 33.0234 5.67969 30.5273 5.67969C26.9414 5.67969 24.3984 8.12891 24.3984 11.5859C24.3984 14.8438 26.7422 17.2227 29.9648 17.2227C31.9688 17.2227 33.5859 16.2852 34.3945 14.6562H34.4414C34.4414 14.6562 34.4883 14.6562 34.5 14.6562C34.5117 14.6562 34.5938 14.6562 34.5938 14.6562C34.5469 18.7344 33.0352 21.0781 30.4453 21.0781C28.8984 21.0781 27.7031 20.2344 27.293 18.8516H24.6445C25.1602 21.6172 27.4219 23.4102 30.4219 23.4102ZM30.5391 14.9961C28.4648 14.9961 27.0117 13.543 27.0117 11.4922C27.0117 9.51172 28.5469 7.98828 30.5625 7.98828C32.5664 7.98828 34.1016 9.52344 34.1016 11.5508C34.1016 13.543 32.6016 14.9961 30.5391 14.9961ZM46.6875 23.4102C50.2734 23.4102 52.8164 20.9492 52.8164 17.5039C52.8164 14.2344 50.4727 11.8672 47.2617 11.8672C45.2578 11.8672 43.6406 12.793 42.8203 14.4219H42.6211C42.6797 10.3555 44.1797 8 46.7812 8C48.3164 8 49.5117 8.84375 49.9336 10.2266H52.5703C52.0547 7.46094 49.793 5.67969 46.8047 5.67969C42.5742 5.67969 40.1016 9.03125 40.1016 14.7617C40.1016 16.8242 40.4414 18.5469 41.1328 19.9062C42.2344 22.168 44.1797 23.4102 46.6875 23.4102ZM46.6641 21.1016C44.6484 21.1016 43.1133 19.5547 43.1133 17.5391C43.1133 15.5352 44.6133 14.082 46.6758 14.082C48.75 14.082 50.2148 15.5352 50.2148 17.5859C50.2148 19.5781 48.6797 21.1016 46.6641 21.1016ZM62.707 23H65.2266V15.1953C65.2266 13.5547 66.3867 12.3008 67.9219 12.3008C69.4219 12.3008 70.3828 13.1797 70.3828 14.6211V23H72.8555V14.9727C72.8555 13.4727 73.9219 12.3008 75.5508 12.3008C77.2031 12.3008 78.0234 13.1445 78.0234 14.8672V23H80.543V14.2109C80.543 11.5508 79.043 9.99219 76.4648 9.99219C74.6953 9.99219 73.2305 10.8945 72.5859 12.2891H72.3867C71.8242 10.8945 70.6172 9.99219 68.8711 9.99219C67.1719 9.99219 65.8828 10.8477 65.3203 12.2891H65.1328V10.2383H62.707V23ZM84.1289 23H86.6367V10.2383H84.1289V23ZM85.3828 8C86.3203 8 87.0117 7.33203 87.0117 6.46484C87.0117 5.58594 86.3203 4.91797 85.3828 4.91797C84.4453 4.91797 83.7539 5.58594 83.7539 6.46484C83.7539 7.33203 84.4453 8 85.3828 8Z" fill="white"/>
<path d="M2.56836 32.6992H4.41992C5.43359 32.6992 6.05469 33.2559 6.05469 34.1758C6.05469 35.1191 5.46875 35.6582 4.45508 35.6582H2.56836V32.6992ZM2.56836 36.7773H4.41992L6.14258 40H7.66016L5.76172 36.5605C6.79297 36.209 7.40234 35.2832 7.40234 34.1465C7.40234 32.5586 6.30664 31.5449 4.60156 31.5449H1.25586V40H2.56836V36.7773ZM11.2109 39.0449C10.5254 39.0449 10.0273 38.7109 10.0273 38.1367C10.0273 37.5742 10.4258 37.2754 11.3047 37.2168L12.8633 37.1172V37.6504C12.8633 38.4414 12.1602 39.0449 11.2109 39.0449ZM10.8887 40.1055C11.7266 40.1055 12.4238 39.7422 12.8047 39.1035H12.9043V40H14.1172V35.6406C14.1172 34.293 13.2148 33.4961 11.6152 33.4961C10.168 33.4961 9.13672 34.1992 9.00781 35.2949H10.2266C10.3672 34.8438 10.8535 34.5859 11.5566 34.5859C12.418 34.5859 12.8633 34.9668 12.8633 35.6406V36.1914L11.1348 36.291C9.61719 36.3848 8.76172 37.0469 8.76172 38.1953C8.76172 39.3613 9.6582 40.1055 10.8887 40.1055ZM15.9102 40H17.1699V36.2676C17.1699 35.2715 17.791 34.6504 18.8047 34.6504C19.7422 34.6504 20.1992 35.1602 20.1992 36.1855V40H21.459V35.8691C21.459 34.3516 20.6562 33.4961 19.2324 33.4961C18.2715 33.4961 17.5273 33.9238 17.2168 34.6328H17.123V33.6191H15.9102V40ZM27.6348 36.7305C27.6348 38.0078 26.9844 38.8164 25.9062 38.8164C24.8223 38.8164 24.2129 38.002 24.2129 36.7305C24.2129 35.459 24.8223 34.6445 25.9062 34.6445C26.9785 34.6445 27.6348 35.459 27.6348 36.7305ZM25.9238 42.4375C27.7285 42.4375 28.8711 41.5117 28.8711 40.0527V33.6191H27.6641V34.6387H27.5645C27.207 33.9473 26.4395 33.5137 25.5605 33.5137C23.9316 33.5137 22.9121 34.791 22.9121 36.7363C22.9121 38.6465 23.9199 39.9062 25.5488 39.9062C26.4277 39.9062 27.1309 39.5254 27.5176 38.834H27.6113V40.0586C27.6113 40.9023 26.9902 41.4004 25.9414 41.4004C25.0918 41.4004 24.5586 41.1016 24.4531 40.6387H23.1641C23.2988 41.7227 24.3301 42.4375 25.9238 42.4375ZM33.3184 34.5684C34.25 34.5684 34.8594 35.2188 34.8887 36.2207H31.666C31.7363 35.2246 32.3867 34.5684 33.3184 34.5684ZM34.8828 38.2773C34.6484 38.7754 34.127 39.0508 33.3652 39.0508C32.3574 39.0508 31.707 38.3418 31.666 37.2227V37.1523H36.1719V36.7129C36.1719 34.709 35.0996 33.4961 33.3242 33.4961C31.5254 33.4961 30.3828 34.791 30.3828 36.8301C30.3828 38.8691 31.502 40.123 33.3301 40.123C34.7891 40.123 35.8086 39.4199 36.0957 38.2773H34.8828ZM43.7891 41.623C42.793 39.877 42.3535 38.3125 42.3535 36.4844C42.3535 34.5859 42.957 32.541 43.8066 31.5508H42.6992C41.5449 33.0273 41.0586 34.4805 41.0586 36.4844C41.0586 38.4941 41.6328 40.3633 42.6406 41.623H43.7891ZM50.9082 38.8047H46.8535V36.2676H50.6914V35.1309H46.8535V32.7402H50.9082V31.5449H45.541V40H50.9082V38.8047ZM52.8066 31.5449V40H54.1191V37.1523H56.0762C57.7344 37.1523 58.9062 36.0156 58.9062 34.3633C58.9062 32.6875 57.7695 31.5449 56.1172 31.5449H52.8066ZM54.1191 32.7051H55.7715C56.9258 32.7051 57.5645 33.291 57.5645 34.3633C57.5645 35.4121 56.9023 35.998 55.7715 35.998H54.1191V32.7051ZM65.5215 40H66.916L63.8633 31.5449H62.4512L59.3984 40H60.7461L61.5254 37.7559H64.748L65.5215 40ZM63.0898 33.0801H63.1895L64.4141 36.6543H61.8594L63.0898 33.0801ZM74.1465 34.5684C75.0781 34.5684 75.6875 35.2188 75.7168 36.2207H72.4941C72.5645 35.2246 73.2148 34.5684 74.1465 34.5684ZM75.7109 38.2773C75.4766 38.7754 74.9551 39.0508 74.1934 39.0508C73.1855 39.0508 72.5352 38.3418 72.4941 37.2227V37.1523H77V36.7129C77 34.709 75.9277 33.4961 74.1523 33.4961C72.3535 33.4961 71.2109 34.791 71.2109 36.8301C71.2109 38.8691 72.3301 40.123 74.1582 40.123C75.6172 40.123 76.6367 39.4199 76.9238 38.2773H75.7109ZM78.3652 35.4238C78.3652 36.373 78.9277 36.918 80.1406 37.2051L81.2539 37.4629C81.8926 37.6152 82.1914 37.8613 82.1914 38.2422C82.1914 38.752 81.6348 39.1035 80.8496 39.1035C80.0879 39.1035 79.6191 38.7988 79.4609 38.3066H78.2012C78.3125 39.4375 79.3027 40.123 80.8203 40.123C82.3438 40.123 83.4629 39.3203 83.4629 38.1191C83.4629 37.1816 82.8945 36.6602 81.6816 36.3789L80.6211 36.1328C79.9297 35.9746 79.6074 35.7344 79.6074 35.3535C79.6074 34.8555 80.1406 34.5215 80.8438 34.5215C81.5586 34.5215 82.0156 34.8203 82.1328 35.2891H83.3398C83.2168 34.1641 82.2793 33.4961 80.8438 33.4961C79.4023 33.4961 78.3652 34.293 78.3652 35.4238ZM85.3789 32.0723V33.6484H84.3301V34.709H85.3789V38.3125C85.3789 39.543 85.9355 40.0352 87.3359 40.0352C87.582 40.0352 87.8105 40.0059 88.0098 39.9707V38.9219C87.834 38.9395 87.7344 38.9512 87.541 38.9512C86.9141 38.9512 86.6387 38.6582 86.6387 37.9902V34.709H88.0684V33.6484H86.6387V32.0723H85.3789ZM90.4824 40.0996C90.9805 40.0996 91.3438 39.7188 91.3438 39.2266C91.3438 38.7344 90.9805 38.3535 90.4824 38.3535C89.9902 38.3535 89.6211 38.7344 89.6211 39.2266C89.6211 39.7188 89.9902 40.0996 90.4824 40.0996ZM93.0547 41.623H94.209C95.2168 40.3516 95.791 38.4824 95.791 36.4844C95.791 34.4805 95.3105 33.0273 94.1562 31.5508H93.0371C93.8867 32.5352 94.4902 34.5801 94.4902 36.4844C94.4902 38.3125 94.0508 39.877 93.0547 41.623Z" fill="white"/>
<path d="M203.363 23H205.988V6.08984H203.375L198.922 9.23047V11.9141L203.164 8.91406H203.363V23ZM212.258 23.1992C213.254 23.1992 213.98 22.4375 213.98 21.4531C213.98 20.4688 213.254 19.707 212.258 19.707C211.273 19.707 210.535 20.4688 210.535 21.4531C210.535 22.4375 211.273 23.1992 212.258 23.1992ZM222.688 23.4102C226.918 23.4102 229.391 20.0469 229.391 14.3164C229.391 12.2656 229.039 10.5312 228.348 9.17188C227.258 6.89844 225.289 5.67969 222.793 5.67969C219.207 5.67969 216.664 8.12891 216.664 11.5859C216.664 14.8438 219.008 17.2227 222.23 17.2227C224.234 17.2227 225.852 16.2852 226.66 14.6562H226.707C226.707 14.6562 226.754 14.6562 226.766 14.6562C226.777 14.6562 226.859 14.6562 226.859 14.6562C226.812 18.7344 225.301 21.0781 222.711 21.0781C221.164 21.0781 219.969 20.2344 219.559 18.8516H216.91C217.426 21.6172 219.688 23.4102 222.688 23.4102ZM222.805 14.9961C220.73 14.9961 219.277 13.543 219.277 11.4922C219.277 9.51172 220.812 7.98828 222.828 7.98828C224.832 7.98828 226.367 9.52344 226.367 11.5508C226.367 13.543 224.867 14.9961 222.805 14.9961ZM238.391 23.4102C242.621 23.4102 245.094 20.0469 245.094 14.3164C245.094 12.2656 244.742 10.5312 244.051 9.17188C242.961 6.89844 240.992 5.67969 238.496 5.67969C234.91 5.67969 232.367 8.12891 232.367 11.5859C232.367 14.8438 234.711 17.2227 237.934 17.2227C239.938 17.2227 241.555 16.2852 242.363 14.6562H242.41C242.41 14.6562 242.457 14.6562 242.469 14.6562C242.48 14.6562 242.562 14.6562 242.562 14.6562C242.516 18.7344 241.004 21.0781 238.414 21.0781C236.867 21.0781 235.672 20.2344 235.262 18.8516H232.613C233.129 21.6172 235.391 23.4102 238.391 23.4102ZM238.508 14.9961C236.434 14.9961 234.98 13.543 234.98 11.4922C234.98 9.51172 236.516 7.98828 238.531 7.98828C240.535 7.98828 242.07 9.52344 242.07 11.5508C242.07 13.543 240.57 14.9961 238.508 14.9961ZM248.117 13.8477C248.117 15.7461 249.242 16.8359 251.668 17.4102L253.895 17.9258C255.172 18.2305 255.77 18.7227 255.77 19.4844C255.77 20.5039 254.656 21.207 253.086 21.207C251.562 21.207 250.625 20.5977 250.309 19.6133H247.789C248.012 21.875 249.992 23.2461 253.027 23.2461C256.074 23.2461 258.312 21.6406 258.312 19.2383C258.312 17.3633 257.176 16.3203 254.75 15.7578L252.629 15.2656C251.246 14.9492 250.602 14.4688 250.602 13.707C250.602 12.7109 251.668 12.043 253.074 12.043C254.504 12.043 255.418 12.6406 255.652 13.5781H258.066C257.82 11.3281 255.945 9.99219 253.074 9.99219C250.191 9.99219 248.117 11.5859 248.117 13.8477Z" fill="white"/>
<path d="M201.316 40.2051C203.285 40.2051 204.434 38.582 204.434 35.7754C204.434 32.9746 203.268 31.3398 201.316 31.3398C199.354 31.3398 198.188 32.9688 198.188 35.7637C198.188 38.5762 199.342 40.2051 201.316 40.2051ZM201.316 39.0566C200.168 39.0566 199.512 37.9023 199.512 35.7637C199.512 33.6484 200.18 32.4883 201.316 32.4883C202.453 32.4883 203.109 33.6426 203.109 35.7637C203.109 37.9082 202.465 39.0566 201.316 39.0566ZM209.988 37.2109V35.9746H206.145V37.2109H209.988ZM214.963 40.2051C216.756 40.2051 218.027 38.9746 218.027 37.252C218.027 35.6172 216.855 34.4336 215.25 34.4336C214.248 34.4336 213.439 34.8965 213.029 35.7109H212.93C212.959 33.6777 213.709 32.5 215.01 32.5C215.777 32.5 216.375 32.9219 216.586 33.6133H217.904C217.646 32.2305 216.516 31.3398 215.021 31.3398C212.906 31.3398 211.67 33.0156 211.67 35.8809C211.67 36.9121 211.84 37.7734 212.186 38.4531C212.736 39.584 213.709 40.2051 214.963 40.2051ZM214.951 39.0508C213.943 39.0508 213.176 38.2773 213.176 37.2695C213.176 36.2676 213.926 35.541 214.957 35.541C215.994 35.541 216.727 36.2676 216.727 37.293C216.727 38.2891 215.959 39.0508 214.951 39.0508ZM222.68 40.2051C224.648 40.2051 225.797 38.582 225.797 35.7754C225.797 32.9746 224.631 31.3398 222.68 31.3398C220.717 31.3398 219.551 32.9688 219.551 35.7637C219.551 38.5762 220.705 40.2051 222.68 40.2051ZM222.68 39.0566C221.531 39.0566 220.875 37.9023 220.875 35.7637C220.875 33.6484 221.543 32.4883 222.68 32.4883C223.816 32.4883 224.473 33.6426 224.473 35.7637C224.473 37.9082 223.828 39.0566 222.68 39.0566ZM230.766 40H232.025V36.0977C232.025 35.2773 232.605 34.6504 233.373 34.6504C234.123 34.6504 234.604 35.0898 234.604 35.8105V40H235.84V35.9863C235.84 35.2363 236.373 34.6504 237.188 34.6504C238.014 34.6504 238.424 35.0723 238.424 35.9336V40H239.684V35.6055C239.684 34.2754 238.934 33.4961 237.645 33.4961C236.76 33.4961 236.027 33.9473 235.705 34.6445H235.605C235.324 33.9473 234.721 33.4961 233.848 33.4961C232.998 33.4961 232.354 33.9238 232.072 34.6445H231.979V33.6191H230.766V40ZM244.764 33.5137C243.896 33.5137 243.146 33.9473 242.76 34.6738H242.666V33.6191H241.453V42.0684H242.713V39.0332H242.812C243.146 39.707 243.867 40.1055 244.775 40.1055C246.387 40.1055 247.412 38.834 247.412 36.8066C247.412 34.7793 246.387 33.5137 244.764 33.5137ZM244.406 38.9746C243.352 38.9746 242.689 38.1426 242.689 36.8125C242.689 35.4766 243.352 34.6445 244.412 34.6445C245.479 34.6445 246.117 35.459 246.117 36.8066C246.117 38.1602 245.479 38.9746 244.406 38.9746ZM248.988 40H250.248V36.2734C250.248 35.3066 250.887 34.6562 251.918 34.6562C252.867 34.6562 253.342 35.1719 253.342 36.1914V40H254.602V35.8809C254.602 34.3633 253.781 33.502 252.346 33.502C251.385 33.502 250.646 33.9297 250.336 34.6445H250.236V31.1289H248.988V40ZM259.166 33.7715L260.672 33.0625L260.227 32.2422L258.85 33.2266L258.984 31.5449H258.076L258.205 33.2266L256.834 32.2422L256.383 33.0625L257.895 33.7715L256.383 34.457L256.834 35.2656L258.205 34.3281L258.076 35.9688H258.984L258.855 34.334L260.227 35.2656L260.672 34.457L259.166 33.7715Z" fill="white"/>
<path d="M365.066 10.9766V11.0117H367.551V10.9766C367.551 9.17188 368.805 7.95312 370.668 7.95312C372.414 7.95312 373.738 9.11328 373.738 10.6602C373.738 11.9023 373.188 12.793 370.926 15.1484L365.207 21.1016V23H376.598V20.6445H368.863V20.4453L372.625 16.6367C375.461 13.7656 376.328 12.3008 376.328 10.5078C376.328 7.71875 373.961 5.67969 370.75 5.67969C367.422 5.67969 365.066 7.85938 365.066 10.9766ZM386.02 23.4102C389.957 23.4102 392.254 20.1641 392.254 14.5508C392.254 8.94922 389.922 5.67969 386.02 5.67969C382.094 5.67969 379.762 8.9375 379.762 14.5273C379.762 20.1523 382.07 23.4102 386.02 23.4102ZM386.02 21.1133C383.723 21.1133 382.41 18.8047 382.41 14.5273C382.41 10.2969 383.746 7.97656 386.02 7.97656C388.293 7.97656 389.605 10.2852 389.605 14.5273C389.605 18.8164 388.316 21.1133 386.02 21.1133ZM401.605 23.4102C405.543 23.4102 407.84 20.1641 407.84 14.5508C407.84 8.94922 405.508 5.67969 401.605 5.67969C397.68 5.67969 395.348 8.9375 395.348 14.5273C395.348 20.1523 397.656 23.4102 401.605 23.4102ZM401.605 21.1133C399.309 21.1133 397.996 18.8047 397.996 14.5273C397.996 10.2969 399.332 7.97656 401.605 7.97656C403.879 7.97656 405.191 10.2852 405.191 14.5273C405.191 18.8164 403.902 21.1133 401.605 21.1133ZM411.215 23H413.734V15.1953C413.734 13.5547 414.895 12.3008 416.43 12.3008C417.93 12.3008 418.891 13.1797 418.891 14.6211V23H421.363V14.9727C421.363 13.4727 422.43 12.3008 424.059 12.3008C425.711 12.3008 426.531 13.1445 426.531 14.8672V23H429.051V14.2109C429.051 11.5508 427.551 9.99219 424.973 9.99219C423.203 9.99219 421.738 10.8945 421.094 12.2891H420.895C420.332 10.8945 419.125 9.99219 417.379 9.99219C415.68 9.99219 414.391 10.8477 413.828 12.2891H413.641V10.2383H411.215V23ZM439.211 10.0273C437.477 10.0273 435.977 10.8945 435.203 12.3477H435.016V10.2383H432.59V27.1367H435.109V21.0664H435.309C435.977 22.4141 437.418 23.2109 439.234 23.2109C442.457 23.2109 444.508 20.668 444.508 16.6133C444.508 12.5586 442.457 10.0273 439.211 10.0273ZM438.496 20.9492C436.387 20.9492 435.062 19.2852 435.062 16.625C435.062 13.9531 436.387 12.2891 438.508 12.2891C440.641 12.2891 441.918 13.918 441.918 16.6133C441.918 19.3203 440.641 20.9492 438.496 20.9492ZM447.66 23H450.18V15.5469C450.18 13.6133 451.457 12.3125 453.52 12.3125C455.418 12.3125 456.367 13.3438 456.367 15.3828V23H458.887V14.7617C458.887 11.7266 457.246 10.0039 454.375 10.0039C452.453 10.0039 450.977 10.8594 450.355 12.2891H450.156V5.25781H447.66V23Z" fill="white"/>
<path d="M382.709 40V32.7402H385.363V31.5449H378.736V32.7402H381.396V40H382.709ZM388.598 39.0039C387.502 39.0039 386.887 38.2012 386.887 36.8066C386.887 35.4238 387.502 34.6152 388.598 34.6152C389.688 34.6152 390.309 35.4238 390.309 36.8066C390.309 38.1953 389.688 39.0039 388.598 39.0039ZM388.598 40.123C390.461 40.123 391.604 38.875 391.604 36.8066C391.604 34.75 390.455 33.4961 388.598 33.4961C386.734 33.4961 385.586 34.75 385.586 36.8066C385.586 38.875 386.729 40.123 388.598 40.123ZM396.432 33.5137C395.564 33.5137 394.814 33.9473 394.428 34.6738H394.334V33.6191H393.121V42.0684H394.381V39.0332H394.48C394.814 39.707 395.535 40.1055 396.443 40.1055C398.055 40.1055 399.08 38.834 399.08 36.8066C399.08 34.7793 398.055 33.5137 396.432 33.5137ZM396.074 38.9746C395.02 38.9746 394.357 38.1426 394.357 36.8125C394.357 35.4766 395.02 34.6445 396.08 34.6445C397.146 34.6445 397.785 35.459 397.785 36.8066C397.785 38.1602 397.146 38.9746 396.074 38.9746ZM403.627 37.7266C403.721 39.2383 404.98 40.2051 406.855 40.2051C408.859 40.2051 410.113 39.1914 410.113 37.5742C410.113 36.3027 409.398 35.5996 407.664 35.1953L406.732 34.9668C405.631 34.709 405.186 34.3633 405.186 33.7598C405.186 32.998 405.877 32.5 406.914 32.5C407.898 32.5 408.578 32.9863 408.701 33.7656H409.979C409.902 32.3418 408.648 31.3398 406.932 31.3398C405.086 31.3398 403.855 32.3418 403.855 33.8477C403.855 35.0898 404.553 35.8281 406.082 36.1855L407.172 36.4492C408.291 36.7129 408.783 37.0996 408.783 37.7441C408.783 38.4941 408.01 39.0391 406.955 39.0391C405.824 39.0391 405.039 38.5293 404.928 37.7266H403.627ZM415.006 33.5137C414.139 33.5137 413.389 33.9473 413.002 34.6738H412.908V33.6191H411.695V42.0684H412.955V39.0332H413.055C413.389 39.707 414.109 40.1055 415.018 40.1055C416.629 40.1055 417.654 38.834 417.654 36.8066C417.654 34.7793 416.629 33.5137 415.006 33.5137ZM414.648 38.9746C413.594 38.9746 412.932 38.1426 412.932 36.8125C412.932 35.4766 413.594 34.6445 414.654 34.6445C415.721 34.6445 416.359 35.459 416.359 36.8066C416.359 38.1602 415.721 38.9746 414.648 38.9746ZM421.791 34.5684C422.723 34.5684 423.332 35.2188 423.361 36.2207H420.139C420.209 35.2246 420.859 34.5684 421.791 34.5684ZM423.355 38.2773C423.121 38.7754 422.6 39.0508 421.838 39.0508C420.83 39.0508 420.18 38.3418 420.139 37.2227V37.1523H424.645V36.7129C424.645 34.709 423.572 33.4961 421.797 33.4961C419.998 33.4961 418.855 34.791 418.855 36.8301C418.855 38.8691 419.975 40.123 421.803 40.123C423.262 40.123 424.281 39.4199 424.568 38.2773H423.355ZM428.775 34.5684C429.707 34.5684 430.316 35.2188 430.346 36.2207H427.123C427.193 35.2246 427.844 34.5684 428.775 34.5684ZM430.34 38.2773C430.105 38.7754 429.584 39.0508 428.822 39.0508C427.814 39.0508 427.164 38.3418 427.123 37.2227V37.1523H431.629V36.7129C431.629 34.709 430.557 33.4961 428.781 33.4961C426.982 33.4961 425.84 34.791 425.84 36.8301C425.84 38.8691 426.959 40.123 428.787 40.123C430.246 40.123 431.266 39.4199 431.553 38.2773H430.34ZM435.473 40.1055C436.352 40.1055 437.096 39.6895 437.477 38.9922H437.576V40H438.783V31.1289H437.523V34.6328H437.43C437.084 33.9297 436.346 33.5137 435.473 33.5137C433.861 33.5137 432.824 34.791 432.824 36.8066C432.824 38.8281 433.85 40.1055 435.473 40.1055ZM435.83 34.6445C436.885 34.6445 437.547 35.4824 437.547 36.8125C437.547 38.1484 436.891 38.9746 435.83 38.9746C434.764 38.9746 434.125 38.1602 434.125 36.8066C434.125 35.4648 434.77 34.6445 435.83 34.6445ZM443.318 33.8535L445.012 33.8594V32.7109L443.318 32.7168L443.33 30.9297H442.24L442.252 32.7168L440.559 32.7109V33.8594L442.252 33.8535L442.24 37.3574H443.33L443.318 33.8535Z" fill="white"/>
<path d="M568.672 23H571.297V6.08984H568.684L564.23 9.23047V11.9141L568.473 8.91406H568.672V23ZM577.297 27.4062L578.973 20.3984H576.242L575.188 27.4062H577.297ZM588.148 23.4102C592.086 23.4102 594.383 20.1641 594.383 14.5508C594.383 8.94922 592.051 5.67969 588.148 5.67969C584.223 5.67969 581.891 8.9375 581.891 14.5273C581.891 20.1523 584.199 23.4102 588.148 23.4102ZM588.148 21.1133C585.852 21.1133 584.539 18.8047 584.539 14.5273C584.539 10.2969 585.875 7.97656 588.148 7.97656C590.422 7.97656 591.734 10.2852 591.734 14.5273C591.734 18.8164 590.445 21.1133 588.148 21.1133ZM597.617 10.9766V11.0117H600.102V10.9766C600.102 9.17188 601.355 7.95312 603.219 7.95312C604.965 7.95312 606.289 9.11328 606.289 10.6602C606.289 11.9023 605.738 12.793 603.477 15.1484L597.758 21.1016V23H609.148V20.6445H601.414V20.4453L605.176 16.6367C608.012 13.7656 608.879 12.3008 608.879 10.5078C608.879 7.71875 606.512 5.67969 603.301 5.67969C599.973 5.67969 597.617 7.85938 597.617 10.9766ZM618.57 23.4102C622.508 23.4102 624.805 20.1641 624.805 14.5508C624.805 8.94922 622.473 5.67969 618.57 5.67969C614.645 5.67969 612.312 8.9375 612.312 14.5273C612.312 20.1523 614.621 23.4102 618.57 23.4102ZM618.57 21.1133C616.273 21.1133 614.961 18.8047 614.961 14.5273C614.961 10.2969 616.297 7.97656 618.57 7.97656C620.844 7.97656 622.156 10.2852 622.156 14.5273C622.156 18.8164 620.867 21.1133 618.57 21.1133ZM628.297 23H630.816V15.5469C630.816 13.6133 632.094 12.3125 634.156 12.3125C636.055 12.3125 637.004 13.3438 637.004 15.3828V23H639.523V14.7617C639.523 11.7266 637.883 10.0039 635.012 10.0039C633.09 10.0039 631.613 10.8594 630.992 12.2891H630.793V5.25781H628.297V23ZM649.707 10.0273C647.973 10.0273 646.473 10.8945 645.699 12.3477H645.512V10.2383H643.086V27.1367H645.605V21.0664H645.805C646.473 22.4141 647.914 23.2109 649.73 23.2109C652.953 23.2109 655.004 20.668 655.004 16.6133C655.004 12.5586 652.953 10.0273 649.707 10.0273ZM648.992 20.9492C646.883 20.9492 645.559 19.2852 645.559 16.625C645.559 13.9531 646.883 12.2891 649.004 12.2891C651.137 12.2891 652.414 13.918 652.414 16.6133C652.414 19.3203 651.137 20.9492 648.992 20.9492Z" fill="white"/>
<path d="M579.504 31.5449V40H580.816V37.1523H582.773C584.432 37.1523 585.604 36.0156 585.604 34.3633C585.604 32.6875 584.467 31.5449 582.814 31.5449H579.504ZM580.816 32.7051H582.469C583.623 32.7051 584.262 33.291 584.262 34.3633C584.262 35.4121 583.6 35.998 582.469 35.998H580.816V32.7051ZM589.594 34.5684C590.525 34.5684 591.135 35.2188 591.164 36.2207H587.941C588.012 35.2246 588.662 34.5684 589.594 34.5684ZM591.158 38.2773C590.924 38.7754 590.402 39.0508 589.641 39.0508C588.633 39.0508 587.982 38.3418 587.941 37.2227V37.1523H592.447V36.7129C592.447 34.709 591.375 33.4961 589.6 33.4961C587.801 33.4961 586.658 34.791 586.658 36.8301C586.658 38.8691 587.777 40.123 589.605 40.123C591.064 40.123 592.084 39.4199 592.371 38.2773H591.158ZM596.045 39.0449C595.359 39.0449 594.861 38.7109 594.861 38.1367C594.861 37.5742 595.26 37.2754 596.139 37.2168L597.697 37.1172V37.6504C597.697 38.4414 596.994 39.0449 596.045 39.0449ZM595.723 40.1055C596.561 40.1055 597.258 39.7422 597.639 39.1035H597.738V40H598.951V35.6406C598.951 34.293 598.049 33.4961 596.449 33.4961C595.002 33.4961 593.971 34.1992 593.842 35.2949H595.061C595.201 34.8438 595.688 34.5859 596.391 34.5859C597.252 34.5859 597.697 34.9668 597.697 35.6406V36.1914L595.969 36.291C594.451 36.3848 593.596 37.0469 593.596 38.1953C593.596 39.3613 594.492 40.1055 595.723 40.1055ZM602.162 36.2793H602.062V31.1289H600.803V40H602.062V37.7148L602.619 37.1875L604.811 40H606.357L603.557 36.3555L606.182 33.6191H604.693L602.162 36.2793ZM610.945 31.5449V40H612.258V37.1523H614.215C615.873 37.1523 617.045 36.0156 617.045 34.3633C617.045 32.6875 615.908 31.5449 614.256 31.5449H610.945ZM612.258 32.7051H613.91C615.064 32.7051 615.703 33.291 615.703 34.3633C615.703 35.4121 615.041 35.998 613.91 35.998H612.258V32.7051ZM621.111 39.0039C620.016 39.0039 619.4 38.2012 619.4 36.8066C619.4 35.4238 620.016 34.6152 621.111 34.6152C622.201 34.6152 622.822 35.4238 622.822 36.8066C622.822 38.1953 622.201 39.0039 621.111 39.0039ZM621.111 40.123C622.975 40.123 624.117 38.875 624.117 36.8066C624.117 34.75 622.969 33.4961 621.111 33.4961C619.248 33.4961 618.1 34.75 618.1 36.8066C618.1 38.875 619.242 40.123 621.111 40.123ZM633.697 33.6191H632.438L631.301 38.4883H631.201L629.889 33.6191H628.682L627.369 38.4883H627.275L626.133 33.6191H624.855L626.613 40H627.908L629.221 35.3008H629.32L630.639 40H631.945L633.697 33.6191ZM637.371 34.5684C638.303 34.5684 638.912 35.2188 638.941 36.2207H635.719C635.789 35.2246 636.439 34.5684 637.371 34.5684ZM638.936 38.2773C638.701 38.7754 638.18 39.0508 637.418 39.0508C636.41 39.0508 635.76 38.3418 635.719 37.2227V37.1523H640.225V36.7129C640.225 34.709 639.152 33.4961 637.377 33.4961C635.578 33.4961 634.436 34.791 634.436 36.8301C634.436 38.8691 635.555 40.123 637.383 40.123C638.842 40.123 639.861 39.4199 640.148 38.2773H638.936ZM641.736 40H642.996V36.2324C642.996 35.3359 643.67 34.7324 644.619 34.7324C644.83 34.7324 645.217 34.7734 645.316 34.8086V33.5664C645.182 33.5312 644.941 33.5137 644.76 33.5137C643.928 33.5137 643.225 33.9707 643.043 34.5977H642.949V33.6191H641.736V40Z" fill="white"/>
</svg>
