<svg width="40" height="40" viewBox="0 0 40 40" fill="none" xmlns="http://www.w3.org/2000/svg">
<g filter="url(#filter0_b_5_27)">
<rect x="40" y="40" width="40" height="40" rx="20" transform="rotate(180 40 40)" fill="#F4FBFF" fill-opacity="0.1"/>
</g>
<path d="M14.3258 20.7804L23.4156 29.6805C23.6258 29.8865 23.9065 30 24.2057 30C24.5049 30 24.7856 29.8865 24.9958 29.6805L25.6652 29.0252C26.1008 28.5982 26.1008 27.9042 25.6652 27.4779L18.0323 20.0041L25.6737 12.5221C25.8839 12.3161 26 12.0414 26 11.7486C26 11.4554 25.8839 11.1808 25.6737 10.9746L25.0043 10.3195C24.7939 10.1135 24.5134 10 24.2142 10C23.9149 10 23.6343 10.1135 23.424 10.3195L14.3258 19.2277C14.1151 19.4344 13.9993 19.7103 14 20.0037C13.9993 20.2981 14.1151 20.5739 14.3258 20.7804Z" fill="white"/>
<defs>
<filter id="filter0_b_5_27" x="-500" y="-500" width="1040" height="1040" filterUnits="userSpaceOnUse" color-interpolation-filters="sRGB">
<feFlood flood-opacity="0" result="BackgroundImageFix"/>
<feGaussianBlur in="BackgroundImageFix" stdDeviation="250"/>
<feComposite in2="SourceAlpha" operator="in" result="effect1_backgroundBlur_5_27"/>
<feBlend mode="normal" in="SourceGraphic" in2="effect1_backgroundBlur_5_27" result="shape"/>
</filter>
</defs>
</svg>
