<svg width="40" height="40" viewBox="0 0 40 40" fill="none" xmlns="http://www.w3.org/2000/svg">
<g filter="url(#filter0_b_5_2)">
<rect width="40" height="40" rx="20" fill="#F4FBFF" fill-opacity="0.1"/>
</g>
<path d="M25.6742 19.2196L16.5844 10.3195C16.3742 10.1135 16.0935 10 15.7943 10C15.4951 10 15.2144 10.1135 15.0042 10.3195L14.3348 10.9748C13.8992 11.4018 13.8992 12.0958 14.3348 12.5221L21.9677 19.9959L14.3263 27.4779C14.1161 27.6839 14 27.9586 14 28.2514C14 28.5446 14.1161 28.8192 14.3263 29.0254L14.9957 29.6805C15.2061 29.8865 15.4866 30 15.7858 30C16.0851 30 16.3657 29.8865 16.576 29.6805L25.6742 20.7723C25.8849 20.5656 26.0007 20.2897 26 19.9963C26.0007 19.7019 25.8849 19.4261 25.6742 19.2196Z" fill="white"/>
<defs>
<filter id="filter0_b_5_2" x="-500" y="-500" width="1040" height="1040" filterUnits="userSpaceOnUse" color-interpolation-filters="sRGB">
<feFlood flood-opacity="0" result="BackgroundImageFix"/>
<feGaussianBlur in="BackgroundImageFix" stdDeviation="250"/>
<feComposite in2="SourceAlpha" operator="in" result="effect1_backgroundBlur_5_2"/>
<feBlend mode="normal" in="SourceGraphic" in2="effect1_backgroundBlur_5_2" result="shape"/>
</filter>
</defs>
</svg>
