<svg width="174" height="40" viewBox="0 0 174 40" fill="none" xmlns="http://www.w3.org/2000/svg">
<g filter="url(#filter0_b_2_22)">
<rect width="174" height="40" rx="20" fill="#F4FBFF" fill-opacity="0.1"/>
</g>
<path fill-rule="evenodd" clip-rule="evenodd" d="M34 10C38.9706 10 43 14.0294 43 19C43 21.1248 42.2637 23.0776 41.0323 24.6172L44.7071 28.2929C45.0976 28.6834 45.0976 29.3166 44.7071 29.7071C44.3466 30.0676 43.7794 30.0953 43.3871 29.7903L43.2929 29.7071L39.6172 26.0323C38.0776 27.2637 36.1248 28 34 28C29.0294 28 25 23.9706 25 19C25 14.0294 29.0294 10 34 10ZM34 12C30.134 12 27 15.134 27 19C27 22.866 30.134 26 34 26C37.866 26 41 22.866 41 19C41 15.134 37.866 12 34 12Z" fill="white"/>
<path d="M72.8828 21.9688C73.0078 23.9844 74.6875 25.2734 77.1875 25.2734C79.8594 25.2734 81.5312 23.9219 81.5312 21.7656C81.5312 20.0703 80.5781 19.1328 78.2656 18.5938L77.0234 18.2891C75.5547 17.9453 74.9609 17.4844 74.9609 16.6797C74.9609 15.6641 75.8828 15 77.2656 15C78.5781 15 79.4844 15.6484 79.6484 16.6875H81.3516C81.25 14.7891 79.5781 13.4531 77.2891 13.4531C74.8281 13.4531 73.1875 14.7891 73.1875 16.7969C73.1875 18.4531 74.1172 19.4375 76.1562 19.9141L77.6094 20.2656C79.1016 20.6172 79.7578 21.1328 79.7578 21.9922C79.7578 22.9922 78.7266 23.7188 77.3203 23.7188C75.8125 23.7188 74.7656 23.0391 74.6172 21.9688H72.8828ZM87.1328 17.7578C88.375 17.7578 89.1875 18.625 89.2266 19.9609H84.9297C85.0234 18.6328 85.8906 17.7578 87.1328 17.7578ZM89.2188 22.7031C88.9062 23.3672 88.2109 23.7344 87.1953 23.7344C85.8516 23.7344 84.9844 22.7891 84.9297 21.2969V21.2031H90.9375V20.6172C90.9375 17.9453 89.5078 16.3281 87.1406 16.3281C84.7422 16.3281 83.2188 18.0547 83.2188 20.7734C83.2188 23.4922 84.7109 25.1641 87.1484 25.1641C89.0938 25.1641 90.4531 24.2266 90.8359 22.7031H89.2188ZM95.7344 23.7266C94.8203 23.7266 94.1562 23.2812 94.1562 22.5156C94.1562 21.7656 94.6875 21.3672 95.8594 21.2891L97.9375 21.1562V21.8672C97.9375 22.9219 97 23.7266 95.7344 23.7266ZM95.3047 25.1406C96.4219 25.1406 97.3516 24.6562 97.8594 23.8047H97.9922V25H99.6094V19.1875C99.6094 17.3906 98.4062 16.3281 96.2734 16.3281C94.3438 16.3281 92.9688 17.2656 92.7969 18.7266H94.4219C94.6094 18.125 95.2578 17.7812 96.1953 17.7812C97.3438 17.7812 97.9375 18.2891 97.9375 19.1875V19.9219L95.6328 20.0547C93.6094 20.1797 92.4688 21.0625 92.4688 22.5938C92.4688 24.1484 93.6641 25.1406 95.3047 25.1406ZM102 25H103.68V19.9766C103.68 18.7812 104.578 17.9766 105.844 17.9766C106.125 17.9766 106.641 18.0312 106.773 18.0781V16.4219C106.594 16.375 106.273 16.3516 106.031 16.3516C104.922 16.3516 103.984 16.9609 103.742 17.7969H103.617V16.4922H102V25ZM115.375 19.2734C115.156 17.5703 113.867 16.3281 111.734 16.3281C109.258 16.3281 107.75 17.9922 107.75 20.7188C107.75 23.4922 109.266 25.1641 111.742 25.1641C113.844 25.1641 115.156 23.9766 115.375 22.2656H113.742C113.523 23.1797 112.797 23.6641 111.734 23.6641C110.336 23.6641 109.469 22.5625 109.469 20.7188C109.469 18.9062 110.328 17.8281 111.734 17.8281C112.859 17.8281 113.547 18.4453 113.742 19.2734H115.375ZM117.375 25H119.055V20.0312C119.055 18.7422 119.906 17.875 121.281 17.875C122.547 17.875 123.18 18.5625 123.18 19.9219V25H124.859V19.5078C124.859 17.4844 123.766 16.3359 121.852 16.3359C120.57 16.3359 119.586 16.9062 119.172 17.8594H119.039V13.1719H117.375V25Z" fill="white"/>
<defs>
<filter id="filter0_b_2_22" x="-500" y="-500" width="1174" height="1040" filterUnits="userSpaceOnUse" color-interpolation-filters="sRGB">
<feFlood flood-opacity="0" result="BackgroundImageFix"/>
<feGaussianBlur in="BackgroundImageFix" stdDeviation="250"/>
<feComposite in2="SourceAlpha" operator="in" result="effect1_backgroundBlur_2_22"/>
<feBlend mode="normal" in="SourceGraphic" in2="effect1_backgroundBlur_2_22" result="shape"/>
</filter>
</defs>
</svg>
